<?xml version="1.0" encoding="utf-8"?>
<!-- Generator: Adobe Illustrator 25.0.1, SVG Export Plug-In . SVG Version: 6.00 Build 0)  -->
<svg version="1.1" xmlns="http://www.w3.org/2000/svg" xmlns:xlink="http://www.w3.org/1999/xlink" x="0px" y="0px"
	 viewBox="0 0 48 48" style="enable-background:new 0 0 48 48;" xml:space="preserve">
<style type="text/css">
	.st0{fill:none;stroke:#000;stroke-width:3;stroke-linecap:round;stroke-linejoin:round;}
	.st1{display:none;}
	.st2{display:inline;}
</style>
<g id="Layer_1">
	<path class="st0" d="M2.6,8.4h42.7"/>
	<path class="st0" d="M2.6,24h42.7"/>
	<path class="st0" d="M2.6,39.6h42.7"/>
</g>
<g id="Layer_2" class="st1">
	<g class="st2">
		<path class="st0" d="M33.7,33.7l9.7,9.7"/>
		<path class="st0" d="M4.5,21.2c0,9.2,7.5,16.7,16.7,16.7C25.8,37.9,30,36,33,33c3-3,4.9-7.2,4.9-11.8c0-9.2-7.5-16.7-16.7-16.7
			C12,4.5,4.5,12,4.5,21.2z"/>
	</g>
</g>
<g id="Layer_4" class="st1">
	<g class="st2">
		<path class="st0" d="M40.8,13.2H7.2c-0.8,0-1.6,0.6-1.7,1.5L2.6,41.2c-0.1,0.9,0.6,1.7,1.5,1.8c0.1,0,0.1,0,0.2,0h39.5
			c0.9,0,1.7-0.8,1.6-1.7c0-0.1,0-0.1,0-0.2l-2.9-26.6C42.3,13.8,41.6,13.2,40.8,13.2z"/>
		<path class="st0" d="M15.7,19.9v-6.6c0-4.6,3.7-8.3,8.3-8.3s8.3,3.7,8.3,8.3v6.6"/>
	</g>
</g>
</svg>
